<?xml version="1.0" standalone="no"?><!DOCTYPE svg PUBLIC "-//W3C//DTD SVG 1.1//EN" "http://www.w3.org/Graphics/SVG/1.1/DTD/svg11.dtd"><svg t="1562293331391" class="icon" viewBox="0 0 1024 1024" version="1.1" xmlns="http://www.w3.org/2000/svg" p-id="11078" width="14" height="14" xmlns:xlink="http://www.w3.org/1999/xlink"><defs><style type="text/css"></style></defs><path d="M321.722182 41.285818H120.925091a120.738909 120.738909 0 0 0-120.552727 120.832v201.355637c0 66.699636 40.913455 122.786909 107.426909 122.786909h214.900363c66.606545 0 122.786909-56.133818 122.786909-122.833455V163.886545c0-66.699636-57.157818-122.600727-123.810909-122.600727z" p-id="11079" fill="#BFCBD9"></path><path d="M321.722182 578.56H120.925091a120.738909 120.738909 0 0 0-120.552727 120.785455v201.402181c0 66.699636 40.913455 122.740364 107.426909 122.740364h214.900363c66.606545 0 122.786909-56.087273 122.786909-122.786909v-199.540364c0-66.699636-57.157818-122.600727-123.810909-122.600727zM858.949818 578.56h-200.750545a120.738909 120.738909 0 0 0-120.552728 120.785455v201.402181c0 66.699636 40.866909 122.740364 107.42691 122.740364h214.900363c66.56 0 122.786909-56.087273 122.786909-122.786909v-199.540364c0-66.699636-57.204364-122.600727-123.810909-122.600727zM988.16 176.826182L846.987636 35.700364c-47.197091-47.150545-127.162182-46.219636-174.219636 0.884363l-141.963636 141.963637a120.738909 120.738909 0 0 0 0.139636 170.682181l142.382545 142.429091c47.150545 47.104 115.758545 57.856 162.816 10.798546l151.924364-151.970909c47.104-47.104 47.197091-126.510545 0-173.661091z" p-id="11080" fill="#BFCBD9"></path></svg>