<?xml version="1.0" standalone="no"?><!DOCTYPE svg PUBLIC "-//W3C//DTD SVG 1.1//EN" "http://www.w3.org/Graphics/SVG/1.1/DTD/svg11.dtd"><svg t="1562293389077" class="icon" viewBox="0 0 1024 1024" version="1.1" xmlns="http://www.w3.org/2000/svg" p-id="11545" xmlns:xlink="http://www.w3.org/1999/xlink" width="14" height="14"><defs><style type="text/css"></style></defs><path d="M907.636 1024h-512c-25.716 0-46.545-20.83-46.545-46.545 0-25.717 20.829-46.546 46.545-46.546h465.455v-512c0-25.716 20.829-46.545 46.545-46.545 25.717 0 46.546 20.829 46.546 46.545v558.546c0 25.716-20.83 46.545-46.546 46.545zM768 884.364H116.364c-25.717 0-46.546-20.83-46.546-46.546V46.545C69.818 20.83 90.648 0 116.364 0H768c25.716 0 46.545 20.83 46.545 46.545v791.273c0 25.717-20.829 46.546-46.545 46.546z m-46.545-744.728c0-25.716-20.83-46.545-46.546-46.545H209.455c-25.717 0-46.546 20.829-46.546 46.545v605.091c0 25.717 20.83 46.546 46.546 46.546h465.454c25.716 0 46.546-20.83 46.546-46.546v-605.09z m-93.091 558.546H395.636c-25.716 0-46.545-20.853-46.545-46.546 0-25.716 20.829-46.545 46.545-46.545h232.728c25.693 0 46.545 20.829 46.545 46.545 0 25.693-20.852 46.546-46.545 46.546z m0-209.455H395.636c-25.716 0-46.545-20.829-46.545-46.545 0-25.717 20.829-46.546 46.545-46.546h232.728c25.693 0 46.545 20.83 46.545 46.546s-20.852 46.545-46.545 46.545z m0-232.727H395.636c-25.716 0-46.545-20.83-46.545-46.545 0-25.717 20.829-46.546 46.545-46.546h232.728c25.693 0 46.545 20.83 46.545 46.546S654.057 256 628.364 256zM256 698.182c-25.716 0-46.545-20.853-46.545-46.546 0-25.716 20.829-46.545 46.545-46.545s46.545 20.829 46.545 46.545c0 25.693-20.829 46.546-46.545 46.546z m0-209.455c-25.716 0-46.545-20.829-46.545-46.545 0-25.717 20.829-46.546 46.545-46.546s46.545 20.83 46.545 46.546-20.829 46.545-46.545 46.545zM256 256c-25.716 0-46.545-20.83-46.545-46.545 0-25.717 20.829-46.546 46.545-46.546s46.545 20.83 46.545 46.546S281.716 256 256 256z" fill="#BFCBD9" p-id="11546"></path></svg>