<?xml version="1.0" standalone="no"?><!DOCTYPE svg PUBLIC "-//W3C//DTD SVG 1.1//EN" "http://www.w3.org/Graphics/SVG/1.1/DTD/svg11.dtd"><svg t="1562293088840" class="icon" viewBox="0 0 1024 1024" version="1.1" xmlns="http://www.w3.org/2000/svg" p-id="8480" width="14" height="14" xmlns:xlink="http://www.w3.org/1999/xlink"><defs><style type="text/css"></style></defs><path d="M0 512.00032c0 282.879823 229.183857 511.99968 511.99968 511.99968A511.99968 511.99968 0 1 0 511.99968 0.00064a511.99968 511.99968 0 0 0-511.99968 511.99968m529.983669-511.99968A531.839668 531.839668 0 0 1 767.99952 55.872605c-39.679975 25.855984-96.51194 66.303959-119.935925 99.391938-8.703995 12.223992-15.99999 23.935985-23.039986 34.559978-22.847986 35.583978-33.855979 51.519968-54.975965 54.143967a226.559858 226.559858 0 0 1-39.295976-0.512c-39.807975-2.687998-94.271941-6.271996-111.67993 42.559973-11.135993 30.975981-12.991992 115.071928 22.783986 158.719901 5.759996 6.911996 6.847996 19.839988 3.007998 34.303979-5.119997 19.007988-15.55199 30.527981-18.751988 32.959979-6.143996-3.647998-18.431988-18.367989-26.815984-28.479982-20.031987-24.063985-45.183972-54.143966-77.631951-63.423961-11.775993-3.391998-24.703985-6.207996-37.311977-8.959994-35.135978-7.551995-75.007953-16.25599-84.223947-36.543977-6.783996-15.039991-6.783996-35.519978-6.783996-57.215964 0-27.583983 0-58.751963-13.055992-89.087945A83.711948 83.711948 0 0 0 127.99992 180.800527C228.351857 69.760596 371.455768 0.00064 529.983669 0.00064m115.263928 824.895484c-12.095992-31.35998-52.031967-84.927947-118.719926-159.3599-17.791989-19.839988-16.63999-35.199978-10.239994-80.51195l0.64-5.119996c4.415997-31.039981 11.647993-49.407969 109.951931-66.047959 49.919969-8.383995 62.975961 12.799992 81.215949 42.239973 1.919999 3.199998 4.031997 6.399996 6.079997 9.599994 17.279989 26.943983 30.143981 33.087979 49.471969 42.431974 8.639995 4.159997 19.455988 9.471994 33.919979 18.175989 34.431978 20.863987 34.431978 44.479972 34.431978 96.191939v5.887997c0 82.559948-28.607982 127.23192-39.807975 141.631911A447.35972 447.35972 0 0 1 646.015596 960.00004c26.879983-53.311967 6.399996-116.671927-0.767999-135.103916" p-id="8481" fill="#BFCBD9"></path><path d="M511.99968 934.400056A422.399736 422.399736 0 1 0 511.99968 89.600584a422.399736 422.399736 0 0 0 0 844.799472zM511.99968 1024A511.99968 511.99968 0 1 1 511.99968 0.00064a511.99968 511.99968 0 0 1 0 1023.99936z" p-id="8482" fill="#BFCBD9"></path></svg>