<?xml version="1.0" standalone="no"?><!DOCTYPE svg PUBLIC "-//W3C//DTD SVG 1.1//EN" "http://www.w3.org/Graphics/SVG/1.1/DTD/svg11.dtd"><svg t="1562292937658" class="icon" viewBox="0 0 1159 1024" version="1.1" xmlns="http://www.w3.org/2000/svg" p-id="7526" width="18.109375" height="16" xmlns:xlink="http://www.w3.org/1999/xlink"><defs><style type="text/css"></style></defs><path d="M1043.177385 337.413428V95.886926H118.320848v241.526502h428.958304v48.848056H118.320848V627.787986h428.958304v48.848056H118.320848v241.526502h924.675618V676.455124H614.038163v-48.848057h428.958303V386.261484H614.038163v-48.848056h429.139222z m-102.761837-154.142757c18.45371 0 33.469965 15.016254 33.469964 33.469965s-15.016254 33.469965-33.469964 33.469965-33.469965-15.016254-33.469965-33.469965c0-18.634629 15.016254-33.469965 33.469965-33.469965z m-119.406361 0c18.45371 0 33.469965 15.016254 33.469965 33.469965s-15.016254 33.469965-33.469965 33.469965-33.469965-15.016254-33.469964-33.469965c0.180919-18.634629 15.016254-33.469965 33.469964-33.469965z m-120.672791 0.180919c18.45371 0 33.469965 15.016254 33.469964 33.469965s-15.016254 33.469965-33.469964 33.469964-33.469965-15.016254-33.469965-33.469964c0-18.634629 15.016254-33.469965 33.469965-33.469965z m-443.974559 100.771732c-38.35477 0-69.291873-31.118021-69.291872-69.291873 0-38.35477 31.118021-69.291873 69.291872-69.291873 38.35477 0 69.291873 31.118021 69.291873 69.291873 0 38.173852-30.937102 69.291873-69.291873 69.291873z m0 291.279151c-38.35477 0-69.291873-31.118021-69.291872-69.291872 0-38.35477 31.118021-69.291873 69.291872-69.291873 38.35477 0 69.291873 31.118021 69.291873 69.291873 0 38.173852-30.937102 69.291873-69.291873 69.291872z m0 289.650884c-38.35477 0-69.291873-31.118021-69.291872-69.291873 0-38.35477 31.118021-69.291873 69.291872-69.291873 38.35477 0 69.291873 31.118021 69.291873 69.291873 0 38.173852-30.937102 69.291873-69.291873 69.291873z m684.053711-100.95265c18.45371 0 33.469965 15.016254 33.469964 33.469964s-15.016254 33.469965-33.469964 33.469965-33.469965-15.016254-33.469965-33.469965 15.016254-33.469965 33.469965-33.469964z m-119.406361 0c18.45371 0 33.469965 15.016254 33.469965 33.469964s-15.016254 33.469965-33.469965 33.469965-33.469965-15.016254-33.469964-33.469965c0.180919-18.45371 15.016254-33.469965 33.469964-33.469964z m-120.672791 0.180918c18.45371 0 33.469965 15.016254 33.469964 33.469965s-15.016254 33.469965-33.469964 33.469965-33.469965-15.016254-33.469965-33.469965 15.016254-33.469965 33.469965-33.469965z m240.079152-289.831802c18.45371 0 33.469965 15.016254 33.469964 33.469965s-15.016254 33.469965-33.469964 33.469965-33.469965-15.016254-33.469965-33.469965 15.016254-33.469965 33.469965-33.469965z m-119.406361 0c18.45371 0 33.469965 15.016254 33.469965 33.469965s-15.016254 33.469965-33.469965 33.469965-33.469965-15.016254-33.469964-33.469965c0.180919-18.45371 15.016254-33.469965 33.469964-33.469965z m-120.672791 0.180919c18.45371 0 33.469965 15.016254 33.469964 33.469965s-15.016254 33.469965-33.469964 33.469964-33.469965-15.016254-33.469965-33.469964 15.016254-33.469965 33.469965-33.469965z" fill="#BFCBD9" p-id="7527"></path></svg>