<?xml version="1.0" standalone="no"?><!DOCTYPE svg PUBLIC "-//W3C//DTD SVG 1.1//EN" "http://www.w3.org/Graphics/SVG/1.1/DTD/svg11.dtd"><svg t="1562319569476" class="icon" viewBox="0 0 1024 1024" version="1.1" xmlns="http://www.w3.org/2000/svg" p-id="2277" width="12" height="12" xmlns:xlink="http://www.w3.org/1999/xlink"><defs><style type="text/css"></style></defs><path d="M597.504 1003.008H373.76c-3.072 0-5.12-2.048-5.12-5.12v-29.184c0-3.072 2.048-5.12 5.12-5.12h223.744c3.072 0 5.12 2.048 5.12 5.12v29.184c0 3.072-2.56 5.12-5.12 5.12zM569.344 543.744h-23.552v45.568h23.552c22.528 0 34.816-7.68 34.816-24.064 0-15.872-12.288-21.504-34.816-21.504zM697.856 544.256h-14.336v97.792h14.336c33.28 0 51.2-16.896 51.2-49.664 0-32.768-17.92-48.128-51.2-48.128z" fill="#BFCBD9" p-id="2278"></path><path d="M940.032 443.904H484.864c-3.072 0-5.12 2.048-5.12 4.608v277.504c0 2.56 2.56 4.608 5.12 4.608h455.168c3.072 0 5.12-2.048 5.12-4.608V448c0.512-2.56-2.048-4.096-5.12-4.096z m-333.824 215.04l-35.328-53.248h-25.088v53.248h-24.576v-132.096h50.688c31.744 0 55.808 9.728 55.808 38.4 0 20.48-12.8 32.768-32.256 37.888l37.888 55.808h-27.136z m94.72 0h-41.472v-132.096h39.936c47.616 0 74.752 22.528 74.752 65.536s-27.136 66.56-73.216 66.56z m149.504 2.56c-20.992 0-40.96-7.168-55.296-19.456l14.336-14.336c11.264 9.728 26.112 15.36 40.96 15.36 18.944 0 29.184-7.68 29.184-18.432 0-11.776-10.752-15.872-24.576-20.992l-21.504-7.68c-14.848-5.632-31.744-15.36-31.744-34.816 0-20.992 21.504-36.352 50.688-36.352 17.92 0 35.328 6.656 47.104 16.896l-12.8 13.312c-9.728-7.168-20.48-11.776-33.792-11.776-15.872 0-26.112 6.656-26.112 16.896 0 11.264 12.288 15.36 25.088 19.968l20.992 7.68c18.432 6.656 31.744 16.384 31.744 35.84 0.512 20.48-20.48 37.888-54.272 37.888z" fill="#BFCBD9" p-id="2279"></path><path d="M801.28 762.368v57.856c0 30.208-114.688 105.472-331.264 105.472-217.088 0-331.264-75.264-331.264-105.472v-120.32c0 6.144 9.216 12.288 20.992 17.92 24.064 12.288 48.128 24.064 78.336 30.208 59.392 16.896 126.976 28.672 202.24 29.696v-62.976c-81.92-2.048-145.408-15.872-196.096-29.696-72.192-24.064-105.472-57.344-105.472-75.264V488.448c0 6.144 9.216 12.288 20.992 17.92 24.064 12.288 48.128 24.064 78.336 30.208 59.392 16.896 126.976 28.672 202.24 29.696V500.736c-81.92-2.048-145.408-15.872-196.096-29.696-72.192-24.064-105.472-57.344-105.472-75.264V274.432c0 6.144 9.216 12.288 20.992 17.92 24.064 12.288 48.128 24.064 78.336 30.208 63.488 17.92 135.68 30.208 217.088 30.208s156.672-12.288 219.648-30.208c30.208-9.216 66.048-20.992 90.112-30.208 9.216-6.144 14.848-6.144 36.352-17.92v121.856c0 1.024-0.512 2.56-1.024 4.096 0.512 2.56 1.024 4.608 1.024 7.168h60.416V186.88c0-33.28-30.208-63.488-69.12-87.552-9.216-6.144-24.064-12.288-33.28-17.92-72.192-35.84-183.808-59.904-304.128-59.904S222.72 43.008 150.528 81.92c-45.056 24.064-72.192 48.128-72.192 105.472v632.32c0 33.28 14.848 63.488 51.2 87.552 9.216 6.144 14.848 12.288 24.064 17.92 72.192 36.352 177.664 50.176 301.056 50.176s228.864-13.824 301.056-50.176c9.216-6.144 27.136-12.288 36.352-17.92 38.912-27.136 69.12-57.344 69.12-87.552v-57.856h-59.904v0.512zM120.32 186.88c0-30.208 117.248-105.472 331.264-105.472 217.088 0 331.264 75.264 331.264 105.472 0 17.92-38.912 48.128-111.616 75.264-54.272 17.92-126.464 30.208-219.648 30.208s-165.888-14.848-219.648-30.208c-72.192-24.064-111.616-56.832-111.616-75.264z" fill="#BFCBD9" p-id="2280"></path></svg>