<?xml version="1.0" standalone="no"?><!DOCTYPE svg PUBLIC "-//W3C//DTD SVG 1.1//EN" "http://www.w3.org/Graphics/SVG/1.1/DTD/svg11.dtd"><svg t="1560838513246" class="icon" style="" viewBox="0 0 1024 1024" version="1.1" xmlns="http://www.w3.org/2000/svg" p-id="8088" xmlns:xlink="http://www.w3.org/1999/xlink" width="20" height="20"><defs><style type="text/css"></style></defs><path d="M886.371328 267.128832c-47.310848-46.713856-110.191616-72.63232-177.291264-72.732672h-0.703488c-32.243712 0-63.684608 6.027264-93.618176 17.882112-31.038464 12.356608-58.962944 30.539776-82.869248 54.148096L297.946112 497.68448c-27.020288 26.722304-41.786368 62.385152-41.686016 100.45952 0.100352 37.974016 15.067136 73.636864 42.187776 100.45952s63.081472 41.590784 101.4528 41.691136h0.301056c38.270976 0 74.130432-14.666752 101.051392-41.188352l205.316096-202.928128c6.83008-6.730752 10.5472-15.671296 10.5472-25.114624 0-9.54368-3.716096-18.484224-10.5472-25.114624-6.729728-6.730752-15.770624-10.34752-25.31328-10.34752s-18.582528 3.71712-25.31328 10.34752L450.62656 648.876032c-13.359104 13.2608-31.33952 20.493312-50.525184 20.493312h-0.100352c-19.386368-0.100352-37.567488-7.534592-51.027968-20.895744-13.560832-13.461504-21.0944-31.343616-21.0944-50.430976-0.100352-18.987008 7.232512-36.767744 20.691968-50.028544l233.945088-231.358464c33.348608-33.051648 78.148608-51.234816 125.96224-51.234816h0.502784c48.014336 0.100352 93.115392 18.584576 126.966784 51.93728 33.75104 33.453056 52.43392 77.95712 52.534272 125.37344 0.100352 47.417344-18.281472 91.820032-51.730432 124.87168L588.544 813.227008c-49.620992 48.823296-115.9168 75.746304-186.633216 75.746304h-0.703488c-71.016448-0.200704-137.714688-27.526144-187.738112-76.952576s-77.646848-115.328-77.7472-185.5488c-0.200704-70.221824 27.12064-135.921664 76.742656-184.946688l320.43008-316.850176c6.83008-6.730752 10.5472-15.67232 10.5472-25.114624 0-9.54368-3.716096-18.484224-10.5472-25.114624-6.83008-6.730752-15.870976-10.447872-25.413632-10.447872s-18.582528 3.71712-25.31328 10.34752l-320.43008 316.950528c-31.942656 31.54432-56.6528 68.614144-73.52832 110.0032-16.172032 39.983104-24.308736 82.176-24.208384 125.37344 0.100352 43.297792 8.43776 85.491712 24.910848 125.37344 16.975872 41.389056 41.786368 78.45888 73.929728 110.203904 31.942656 31.644672 69.510144 56.257536 111.396864 73.135104 40.179712 16.17408 82.869248 24.41216 126.76608 24.612864h0.904192c43.594752 0 85.88288-8.036352 125.861888-24.009728 41.786368-16.575488 79.253504-40.987648 111.19616-72.63232l248.20736-245.523456c23.805952-23.60832 42.289152-51.13344 54.744064-81.975296 12.053504-29.836288 18.18112-61.179904 18.080768-93.427712-0.301056-66.300928-26.417152-128.586752-73.627648-175.300608z" fill="#666666" p-id="8089"></path></svg>